<?xml version="1.0" encoding="UTF-8" standalone="yes"?>
<svg xmlns="http://www.w3.org/2000/svg" xmlns:xlink="http://www.w3.org/1999/xlink" width="611.614014pt" height="122.746735pt" version="1.1" viewBox="7.104013 227.749878 611.614014 122.746735">
  <!--
	Exported with Concepts: Smarter Sketching
	Version: 814 on iOS 13.3
	https://concepts.app/
	-->
  <title>無題 5</title>
  <desc>Drawing exported from Concepts: Smarter Sketching</desc>
  <g id="ペン" opacity="1.000">
    <path id="STROKE_664a98c4-c42e-4afc-8f65-4a733f5fd9ea" opacity="1.000" fill="none" stroke="#fc6932" stroke-width="3.000" stroke-opacity="1.000" stroke-linecap="round" stroke-linejoin="round" d="M 27.707 253.725 Q 28.235 253.800 28.148 253.805 Q 28.062 253.811 28.661 253.243 Q 29.260 252.676 32.165 250.435 Q 35.070 248.193 37.935 245.860 Q 40.800 243.526 46.189 240.520 Q 51.579 237.513 54.409 236.616 Q 57.240 235.718 57.333 235.718 "></path>
    <path id="STROKE_25275283-a50c-4142-83fd-a7073daf1463" opacity="1.000" fill="none" stroke="#fc6932" stroke-width="3.000" stroke-opacity="1.000" stroke-linecap="round" stroke-linejoin="round" d="M 19.614 272.139 Q 18.749 272.093 19.726 275.255 Q 20.703 278.416 22.672 280.580 Q 24.640 282.745 26.134 284.002 Q 27.628 285.260 30.069 285.314 Q 32.509 285.368 32.933 285.234 "></path>
    <path id="STROKE_635539fd-f8ed-407f-aaca-7e27de0af706" opacity="1.000" fill="none" stroke="#fc6932" stroke-width="3.000" stroke-opacity="1.000" stroke-linecap="round" stroke-linejoin="round" d="M 27.164 273.857 Q 26.760 273.453 28.291 271.661 Q 29.822 269.870 32.742 267.314 Q 35.661 264.758 37.740 262.342 Q 39.819 259.925 46.746 255.604 Q 53.672 251.283 57.514 249.010 Q 61.355 246.738 63.635 245.548 Q 65.915 244.358 72.553 243.373 Q 73.597 242.722 71.927 246.739 Q 70.257 250.757 68.575 253.662 Q 66.894 256.568 65.976 258.683 Q 65.057 260.799 63.914 263.138 Q 62.771 265.477 62.440 265.840 "></path>
    <path id="STROKE_598526b9-a9a0-4205-816c-ae08ccf6624b" opacity="1.000" fill="none" stroke="#fc6932" stroke-width="3.000" stroke-opacity="1.000" stroke-linecap="round" stroke-linejoin="round" d="M 41.553 244.995 Q 41.587 244.963 41.926 244.855 Q 42.283 244.271 43.644 253.723 Q 45.005 263.176 46.134 268.135 Q 47.263 273.094 47.390 273.323 "></path>
    <path id="STROKE_51c8adc8-2265-480a-a716-b52aa12299e6" opacity="1.000" fill="none" stroke="#fc6932" stroke-width="3.000" stroke-opacity="1.000" stroke-linecap="round" stroke-linejoin="round" d="M 33.476 272.801 Q 33.442 272.801 33.408 272.801 Q 31.876 272.876 35.425 270.385 Q 38.974 267.895 39.177 267.762 "></path>
    <path id="STROKE_11ba75d6-3abe-4240-96fe-aeff8bf621ce" opacity="1.000" fill="none" stroke="#fc6932" stroke-width="3.000" stroke-opacity="1.000" stroke-linecap="round" stroke-linejoin="round" d="M 36.259 276.504 Q 36.257 276.476 36.191 277.166 Q 36.478 277.144 38.044 275.450 Q 39.610 273.756 39.975 273.323 "></path>
    <path id="STROKE_e2f79543-b232-49d9-a733-b6a7964e2e8b" opacity="1.000" fill="none" stroke="#fc6932" stroke-width="3.000" stroke-opacity="1.000" stroke-linecap="round" stroke-linejoin="round" d="M 51.445 261.679 Q 51.281 261.828 51.478 261.403 Q 51.676 260.979 52.762 259.834 Q 53.848 258.689 55.314 258.039 Q 55.483 258.166 55.619 258.294 "></path>
    <path id="STROKE_5067a8b8-84e1-4641-a0e1-2270c2f06987" opacity="1.000" fill="none" stroke="#fc6932" stroke-width="3.000" stroke-opacity="1.000" stroke-linecap="round" stroke-linejoin="round" d="M 51.174 267.494 Q 51.174 267.533 51.174 267.571 Q 51.154 267.897 53.433 266.455 Q 55.712 265.013 56.009 264.847 "></path>
    <path id="STROKE_9f4f0fe5-e8c8-47c2-8c27-fcddcba6ec33" opacity="1.000" fill="none" stroke="#fc6932" stroke-width="3.000" stroke-opacity="1.000" stroke-linecap="round" stroke-linejoin="round" d="M 23.262 303.509 Q 23.381 303.451 23.270 303.575 Q 23.159 303.699 23.537 303.402 Q 23.915 303.106 24.372 302.681 Q 24.829 302.256 25.173 301.990 Q 25.517 301.723 26.153 301.149 Q 26.789 300.576 38.516 289.014 Q 38.952 288.369 37.548 291.837 Q 36.144 295.305 35.154 297.686 Q 34.163 300.066 33.866 300.531 "></path>
    <path id="STROKE_df12b32c-0622-4431-9c26-6322cd15fbdc" opacity="1.000" fill="none" stroke="#fc6932" stroke-width="3.000" stroke-opacity="1.000" stroke-linecap="round" stroke-linejoin="round" d="M 29.031 304.374 Q 29.006 304.526 31.585 305.659 Q 34.163 306.792 34.325 307.021 "></path>
    <path id="STROKE_e80fe5d8-0cd8-4f73-bda7-47dc0b4e7dbe" opacity="1.000" fill="none" stroke="#fc6932" stroke-width="3.000" stroke-opacity="1.000" stroke-linecap="round" stroke-linejoin="round" d="M 15.100 331.047 Q 15.582 330.013 15.669 330.023 Q 15.483 329.672 20.061 324.209 Q 24.639 318.745 28.451 314.790 Q 32.264 310.836 35.945 307.246 Q 39.627 303.656 48.323 299.602 Q 48.534 299.598 45.119 304.114 Q 41.704 308.630 39.613 311.316 Q 37.523 314.001 37.192 314.364 "></path>
    <path id="STROKE_b7486c94-80a0-463e-8dad-f23d87a04fda" opacity="1.000" fill="none" stroke="#fc6932" stroke-width="3.000" stroke-opacity="1.000" stroke-linecap="round" stroke-linejoin="round" d="M 35.665 307.224 Q 35.665 307.186 35.665 307.084 Q 36.230 307.364 36.234 313.891 Q 36.238 320.417 36.650 326.326 Q 37.061 332.236 37.644 335.690 Q 38.226 339.145 38.906 342.500 Q 37.459 340.815 37.913 341.279 Q 37.542 340.516 35.904 337.439 Q 34.265 334.362 33.866 333.834 "></path>
    <path id="STROKE_9dd1e7b3-878e-48e9-9721-29f3c2bc7473" opacity="1.000" fill="none" stroke="#fc6932" stroke-width="3.000" stroke-opacity="1.000" stroke-linecap="round" stroke-linejoin="round" d="M 35.597 312.913 Q 36.154 313.906 28.265 326.498 Q 20.377 339.090 19.953 339.650 "></path>
    <path id="STROKE_2644823c-5db6-4c18-a11f-86c5628171e7" opacity="1.000" fill="none" stroke="#fc6932" stroke-width="3.000" stroke-opacity="1.000" stroke-linecap="round" stroke-linejoin="round" d="M 53.295 278.757 Q 53.232 279.737 53.227 279.552 Q 52.457 282.544 51.616 290.131 Q 50.775 297.718 50.902 297.820 "></path>
    <path id="STROKE_f462dd87-7c62-4a58-bc8c-fac2b27c543d" opacity="1.000" fill="none" stroke="#fc6932" stroke-width="3.000" stroke-opacity="1.000" stroke-linecap="round" stroke-linejoin="round" d="M 54.364 288.887 Q 54.364 288.918 54.364 288.950 Q 54.330 288.950 54.296 288.950 Q 54.541 287.988 57.378 285.111 Q 60.215 282.234 61.879 281.701 Q 63.543 281.168 63.577 281.200 "></path>
    <path id="STROKE_852a58ba-f150-4f44-8526-48b1ad667833" opacity="1.000" fill="none" stroke="#fc6932" stroke-width="3.000" stroke-opacity="1.000" stroke-linecap="round" stroke-linejoin="round" d="M 59.335 284.980 Q 59.581 285.128 58.894 288.648 Q 58.206 292.169 53.795 302.341 Q 49.383 312.512 49.188 312.773 "></path>
    <path id="STROKE_56950625-50f8-46c8-a7b1-a8bb6a53c8fb" opacity="1.000" fill="none" stroke="#fc6932" stroke-width="3.000" stroke-opacity="1.000" stroke-linecap="round" stroke-linejoin="round" d="M 52.361 298.673 Q 52.655 298.883 57.441 295.612 Q 62.227 292.340 69.004 288.928 Q 75.780 285.517 82.462 282.460 Q 82.883 282.086 82.096 283.084 Q 81.308 284.083 80.884 284.509 "></path>
    <path id="STROKE_288b623a-733e-4175-aae0-2e1fcc6e17b7" opacity="1.000" fill="none" stroke="#fc6932" stroke-width="3.000" stroke-opacity="1.000" stroke-linecap="round" stroke-linejoin="round" d="M 58.062 311.589 Q 58.338 311.686 57.536 311.920 Q 57.006 310.918 60.704 307.728 Q 64.402 304.538 66.828 303.224 Q 69.254 301.910 70.534 301.214 Q 71.815 300.519 72.407 300.144 Q 72.999 299.768 73.288 299.604 Q 73.577 299.440 73.583 299.448 Q 73.590 299.457 73.509 299.487 Q 73.429 299.516 74.080 299.271 Q 73.718 299.586 74.670 304.333 Q 75.623 309.081 76.237 313.488 Q 76.851 317.894 76.922 319.906 Q 76.993 321.917 76.898 323.663 Q 76.803 325.410 75.931 325.969 Q 75.060 326.529 74.318 326.891 Q 73.575 327.253 71.439 325.129 Q 69.304 323.004 68.939 322.572 "></path>
    <path id="STROKE_1729a0c6-8467-4d0b-bdba-8ba3b23df13b" opacity="1.000" fill="none" stroke="#fc6932" stroke-width="3.000" stroke-opacity="1.000" stroke-linecap="round" stroke-linejoin="round" d="M 63.645 300.136 Q 64.622 300.339 60.998 312.814 Q 57.375 325.289 57.078 325.817 "></path>
    <path id="STROKE_f160e31e-31b1-4805-a230-8e80bc86693a" opacity="1.000" fill="none" stroke="#fc6932" stroke-width="3.000" stroke-opacity="1.000" stroke-linecap="round" stroke-linejoin="round" d="M 134.044 241.546 Q 134.044 241.483 134.451 240.948 Q 134.346 241.816 116.754 265.382 Q 116.864 265.122 117.219 264.767 Q 117.574 264.413 118.047 263.966 Q 118.520 263.519 118.494 263.544 Q 118.468 263.569 118.416 263.584 Q 118.364 263.598 119.028 263.139 Q 119.693 262.681 121.117 262.163 Q 122.541 261.645 123.379 261.872 Q 124.217 262.099 124.588 262.875 Q 124.960 263.651 125.162 264.318 Q 125.364 264.985 125.472 265.838 Q 125.579 266.690 125.929 268.419 Q 126.279 270.147 125.832 297.095 Q 125.832 296.725 125.866 296.080 Q 125.900 295.434 125.968 294.969 "></path>
    <path id="STROKE_26825e82-54ab-44f0-b573-33dbba0d80c4" opacity="1.000" fill="none" stroke="#fc6932" stroke-width="3.000" stroke-opacity="1.000" stroke-linecap="round" stroke-linejoin="round" d="M 124.508 266.502 Q 125.005 265.962 124.966 265.942 Q 124.957 265.748 126.177 264.495 Q 127.398 263.242 129.280 261.404 Q 131.163 259.567 140.577 252.402 Q 141.616 252.423 139.607 260.821 Q 137.599 269.219 137.438 269.416 "></path>
    <path id="STROKE_a7dc2a71-9dd2-4e9e-87db-e9bd910b69d7" opacity="1.000" fill="none" stroke="#fc6932" stroke-width="3.000" stroke-opacity="1.000" stroke-linecap="round" stroke-linejoin="round" d="M 128.411 272.661 Q 128.445 272.661 128.513 272.661 Q 126.939 272.164 136.869 263.588 Q 136.963 263.689 137.031 263.791 "></path>
    <path id="STROKE_24526c92-2db0-4bf9-9499-036cc09e79b2" opacity="1.000" fill="none" stroke="#fc6932" stroke-width="3.000" stroke-opacity="1.000" stroke-linecap="round" stroke-linejoin="round" d="M 127.613 281.073 Q 127.255 281.511 130.324 278.325 Q 133.394 275.138 138.456 271.401 Q 138.592 271.471 138.693 271.541 "></path>
    <path id="STROKE_f13d82db-4167-4127-8a3c-81bb51445ad8" opacity="1.000" fill="none" stroke="#fc6932" stroke-width="3.000" stroke-opacity="1.000" stroke-linecap="round" stroke-linejoin="round" d="M 127.020 290.274 Q 127.020 290.337 127.020 290.605 Q 127.036 291.018 128.723 289.418 Q 130.410 287.817 132.868 285.925 Q 135.325 284.034 137.030 282.618 Q 138.735 281.201 140.470 280.358 Q 142.206 279.514 142.341 279.482 "></path>
    <path id="STROKE_4fb79863-aed8-4a74-a51c-7d1dc132cc64" opacity="1.000" fill="none" stroke="#fc6932" stroke-width="3.000" stroke-opacity="1.000" stroke-linecap="round" stroke-linejoin="round" d="M 127.562 300.200 Q 127.845 300.108 128.290 299.692 Q 128.735 299.277 128.707 299.364 Q 128.679 299.450 129.045 299.056 Q 129.412 298.662 134.660 294.220 Q 139.909 289.777 146.909 285.445 Q 153.909 281.113 158.070 278.991 Q 162.231 276.869 164.218 276.017 Q 166.206 275.165 167.139 275.164 Q 168.071 275.163 168.594 275.262 Q 169.117 275.362 169.392 275.881 Q 169.667 276.401 169.730 276.583 Q 169.792 276.765 169.993 277.510 Q 170.194 278.256 170.399 279.187 Q 170.604 280.118 170.678 280.818 Q 170.752 281.518 170.861 281.957 Q 170.969 282.397 171.694 288.062 Q 172.419 293.727 172.050 298.879 Q 171.682 304.031 171.457 306.649 Q 171.232 309.266 170.335 311.311 Q 169.438 313.356 168.829 314.557 Q 168.220 315.757 167.452 316.392 Q 166.685 317.028 166.124 317.171 Q 165.562 317.314 165.573 317.257 Q 165.584 317.199 165.202 317.475 Q 164.820 317.751 162.183 316.226 Q 159.547 314.701 158.919 314.236 "></path>
    <path id="STROKE_c4b5619e-a1b4-49e3-b4c9-98e5d91613c2" opacity="1.000" fill="none" stroke="#fc6932" stroke-width="3.000" stroke-opacity="1.000" stroke-linecap="round" stroke-linejoin="round" d="M 123.779 304.234 Q 124.500 304.409 124.677 307.206 Q 124.855 310.003 124.750 311.673 Q 124.646 313.342 123.860 314.006 Q 123.075 314.669 122.778 314.898 "></path>
    <path id="STROKE_b366789d-9c76-49f4-9183-1b8af6a92368" opacity="1.000" fill="none" stroke="#fc6932" stroke-width="3.000" stroke-opacity="1.000" stroke-linecap="round" stroke-linejoin="round" d="M 115.821 312.773 Q 115.787 312.773 115.363 312.977 Q 115.243 313.601 115.330 315.432 Q 115.417 317.263 115.348 318.236 Q 115.278 319.209 115.582 319.568 Q 115.886 319.927 116.352 320.098 Q 116.818 320.268 117.633 320.283 Q 118.447 320.299 118.529 320.340 Q 118.611 320.381 123.258 316.652 Q 127.905 312.924 130.451 311.098 Q 132.997 309.272 135.016 307.852 Q 137.035 306.433 139.151 303.712 Q 138.871 303.709 139.319 305.210 Q 139.767 306.712 140.254 308.253 Q 140.742 309.795 141.007 310.976 Q 141.273 312.157 141.488 312.979 Q 141.703 313.800 142.569 317.378 Q 143.436 320.956 143.597 321.388 "></path>
    <path id="STROKE_6f7743e4-1543-42d9-aebf-8e48a0573286" opacity="1.000" fill="none" stroke="#fc6932" stroke-width="3.000" stroke-opacity="1.000" stroke-linecap="round" stroke-linejoin="round" d="M 205.258 287.754 Q 204.755 287.526 203.341 292.590 Q 203.448 293.336 205.702 289.834 Q 207.955 286.332 209.867 283.402 Q 211.779 280.473 213.218 278.845 Q 214.656 277.217 215.386 276.616 Q 216.115 276.015 219.375 273.526 Q 219.372 275.031 219.248 274.977 Q 219.668 274.320 217.954 278.252 Q 216.240 282.185 215.490 287.810 Q 214.739 293.435 214.788 296.945 Q 214.837 300.455 215.030 302.173 Q 215.223 303.892 216.160 305.661 Q 217.096 307.430 217.979 308.286 Q 218.861 309.143 219.520 309.485 Q 220.179 309.826 220.838 309.933 Q 221.497 310.040 221.956 310.159 Q 222.415 310.277 223.576 309.201 Q 224.738 308.125 226.369 304.184 Q 228.001 300.243 229.323 296.656 Q 230.645 293.070 230.913 285.769 Q 230.903 286.619 231.552 289.420 Q 232.200 292.221 233.500 293.983 Q 234.800 295.745 236.829 297.199 Q 238.859 298.653 241.698 298.996 Q 244.538 299.338 248.188 297.425 Q 251.839 295.511 254.225 293.338 Q 256.611 291.164 257.637 290.210 "></path>
    <path id="STROKE_258bf21a-ca57-45bb-b1c3-471e6130634d" opacity="1.000" fill="none" stroke="#fc6932" stroke-width="3.000" stroke-opacity="1.000" stroke-linecap="round" stroke-linejoin="round" d="M 270.363 282.193 Q 270.329 282.193 270.295 282.193 Q 270.199 281.251 277.475 276.428 Q 284.752 271.605 284.820 271.401 "></path>
    <path id="STROKE_c29af302-5a61-409c-bc25-9fc2ea151792" opacity="1.000" fill="none" stroke="#fc6932" stroke-width="3.000" stroke-opacity="1.000" stroke-linecap="round" stroke-linejoin="round" d="M 279.713 268.360 Q 279.519 268.334 277.561 273.927 Q 275.602 279.520 273.387 287.953 Q 271.172 296.386 270.804 306.423 Q 271.034 306.486 271.246 306.537 Q 271.458 306.588 271.755 306.690 "></path>
    <path id="STROKE_f64b8b93-a0c3-4911-b3f3-88ce231416ee" opacity="1.000" fill="none" stroke="#fc6932" stroke-width="3.000" stroke-opacity="1.000" stroke-linecap="round" stroke-linejoin="round" d="M 286.873 274.583 Q 286.931 273.655 289.354 272.309 Q 291.778 270.964 294.797 270.580 Q 294.933 270.841 295.034 271.070 "></path>
    <path id="STROKE_a73272f4-5b99-474a-baa5-7bde04b99212" opacity="1.000" fill="none" stroke="#fc6932" stroke-width="3.000" stroke-opacity="1.000" stroke-linecap="round" stroke-linejoin="round" d="M 288.264 282.396 Q 288.069 282.043 288.999 287.842 Q 289.928 293.642 290.322 297.045 Q 290.716 300.448 290.663 302.206 Q 290.610 303.965 290.288 304.722 Q 289.965 305.479 289.794 305.848 Q 289.624 306.217 288.376 306.386 Q 287.129 306.554 285.986 306.449 Q 284.842 306.344 284.055 305.930 Q 283.268 305.515 282.860 305.342 Q 282.452 305.169 280.834 304.183 Q 279.215 303.196 278.509 301.911 Q 277.803 300.626 280.528 299.451 Q 283.252 298.276 285.882 297.313 Q 288.513 296.351 292.844 294.516 Q 297.175 292.681 301.539 292.139 Q 305.902 291.597 306.165 291.534 "></path>
    <path id="STROKE_7ac2b1cc-fc9d-4bcb-bc3b-103d06fae676" opacity="1.000" fill="none" stroke="#fc6932" stroke-width="3.000" stroke-opacity="1.000" stroke-linecap="round" stroke-linejoin="round" d="M 322.743 287.029 Q 322.813 286.425 325.535 284.704 Q 328.258 282.983 332.756 280.484 Q 337.254 277.984 339.683 276.567 Q 342.112 275.149 342.375 274.850 "></path>
    <path id="STROKE_86b46908-ef73-43c2-bb0e-df3897cb7751" opacity="1.000" fill="none" stroke="#fc6932" stroke-width="3.000" stroke-opacity="1.000" stroke-linecap="round" stroke-linejoin="round" d="M 335.010 268.093 Q 334.963 267.941 332.406 279.457 Q 329.850 290.974 328.483 297.053 Q 327.117 303.132 326.678 306.588 Q 326.240 310.045 326.235 311.196 Q 326.230 312.347 326.204 312.442 "></path>
    <path id="STROKE_677109a3-2ccd-4a40-9ff7-50f3bb7a1272" opacity="1.000" fill="none" stroke="#fc6932" stroke-width="3.000" stroke-opacity="1.000" stroke-linecap="round" stroke-linejoin="round" d="M 336.012 295.237 Q 336.047 294.872 337.377 293.092 Q 338.706 291.312 339.649 290.201 Q 340.591 289.090 342.280 288.118 Q 343.968 287.147 345.343 286.824 Q 346.718 286.501 347.049 287.147 Q 347.380 287.792 347.482 288.021 "></path>
    <path id="STROKE_e6f446ee-8669-488f-95b2-74dc5414517e" opacity="1.000" fill="none" stroke="#fc6932" stroke-width="3.000" stroke-opacity="1.000" stroke-linecap="round" stroke-linejoin="round" d="M 340.118 306.423 Q 340.562 307.096 347.466 309.193 Q 354.371 311.290 354.574 311.259 "></path>
    <path id="STROKE_0a254327-d862-4293-a7c3-504d544b8432" opacity="1.000" fill="none" stroke="#fc6932" stroke-width="3.000" stroke-opacity="1.000" stroke-linecap="round" stroke-linejoin="round" d="M 402.118 291.266 Q 402.613 291.358 400.586 294.313 Q 398.558 297.269 394.024 297.750 Q 393.788 297.369 393.416 296.291 Q 393.044 295.213 393.971 293.051 Q 394.898 290.889 396.228 289.341 Q 397.558 287.793 400.154 286.362 Q 402.749 284.931 405.020 284.741 Q 407.291 284.550 408.639 284.484 Q 409.987 284.418 411.074 285.277 Q 412.162 286.137 412.701 288.877 Q 413.240 291.618 412.491 295.954 Q 411.742 300.290 409.479 304.483 Q 407.217 308.675 406.682 309.273 "></path>
    <path id="STROKE_f25757e1-a1ee-4220-b8e4-33bfbde3a324" opacity="1.000" fill="none" stroke="#fc6932" stroke-width="3.000" stroke-opacity="1.000" stroke-linecap="round" stroke-linejoin="round" d="M 444.079 286.303 Q 444.207 285.540 447.749 283.496 Q 451.291 281.452 455.476 279.756 Q 459.660 278.060 463.372 276.803 Q 463.372 276.772 463.308 276.654 Q 463.244 276.536 463.117 276.441 "></path>
    <path id="STROKE_7c477715-12a1-4a4a-9ab3-0a4ed23192d5" opacity="1.000" fill="none" stroke="#fc6932" stroke-width="3.000" stroke-opacity="1.000" stroke-linecap="round" stroke-linejoin="round" d="M 454.362 269.085 Q 455.168 268.961 456.206 272.239 Q 457.243 275.517 457.732 281.386 Q 458.221 287.254 458.238 291.054 Q 458.256 294.853 457.755 298.615 Q 457.254 302.377 456.516 305.419 Q 455.778 308.462 455.022 309.998 Q 454.265 311.534 453.484 312.171 Q 452.703 312.809 451.027 312.644 Q 449.352 312.480 448.618 310.976 Q 447.884 309.473 447.839 307.518 Q 447.794 305.563 449.889 302.124 Q 451.984 298.685 455.630 295.704 Q 459.277 292.723 462.504 291.077 Q 465.730 289.431 467.887 288.913 Q 470.044 288.394 471.805 288.452 Q 473.567 288.510 474.629 288.944 Q 475.692 289.377 477.067 291.905 Q 478.442 294.432 477.727 297.990 Q 477.011 301.548 476.171 303.691 Q 475.330 305.834 474.439 307.059 Q 473.548 308.283 472.460 308.645 Q 471.372 309.006 471.007 309.133 "></path>
    <path id="STROKE_326083f6-f6c9-4c9c-a3a9-ebefe968f9d6" opacity="1.000" fill="none" stroke="#fc6932" stroke-width="3.000" stroke-opacity="1.000" stroke-linecap="round" stroke-linejoin="round" d="M 476.895 270.676 Q 477.685 270.588 480.709 271.542 Q 483.733 272.496 484.259 272.725 "></path>
    <path id="STROKE_6803efd4-167c-40f1-95fa-bbc15e26eb25" opacity="1.000" fill="none" stroke="#fc6932" stroke-width="3.000" stroke-opacity="1.000" stroke-linecap="round" stroke-linejoin="round" d="M 511.967 259.948 Q 512.670 259.139 512.545 259.306 Q 512.419 259.474 512.467 259.384 Q 512.516 259.294 513.040 259.219 Q 513.564 259.143 513.354 259.148 Q 513.144 259.153 513.890 259.163 Q 514.636 259.174 514.965 260.505 Q 515.294 261.836 514.262 264.883 Q 513.230 267.929 511.377 270.760 Q 509.524 273.590 509.066 274.188 "></path>
    <path id="STROKE_8ad962d1-3a74-48ec-818a-33e85143311d" opacity="1.000" fill="none" stroke="#fc6932" stroke-width="3.000" stroke-opacity="1.000" stroke-linecap="round" stroke-linejoin="round" d="M 501.702 281.735 Q 501.640 281.391 504.286 279.153 Q 506.932 276.915 511.553 274.024 Q 516.175 271.134 519.344 270.078 Q 522.513 269.022 522.776 268.894 "></path>
    <path id="STROKE_f0d1e105-2008-49af-a35a-812c3ecfef36" opacity="1.000" fill="none" stroke="#fc6932" stroke-width="3.000" stroke-opacity="1.000" stroke-linecap="round" stroke-linejoin="round" d="M 510.186 278.426 Q 510.306 276.847 509.855 284.350 Q 510.559 284.402 510.551 284.382 Q 510.780 284.350 510.962 284.168 Q 511.144 283.987 511.374 283.656 "></path>
    <path id="STROKE_c0129cc9-a2fa-4085-9977-1524f9397b16" opacity="1.000" fill="none" stroke="#fc6932" stroke-width="3.000" stroke-opacity="1.000" stroke-linecap="round" stroke-linejoin="round" d="M 515.548 276.772 Q 515.582 276.772 515.615 276.772 Q 515.893 276.809 511.084 283.013 Q 506.275 289.217 505.672 289.879 "></path>
    <path id="STROKE_f96f72c7-0a6f-4418-93b2-e256895cf477" opacity="1.000" fill="none" stroke="#fc6932" stroke-width="3.396" stroke-opacity="1.000" stroke-linecap="round" stroke-linejoin="round" d="M 483.394 314.033 Q 483.638 313.558 487.440 309.573 Q 491.243 305.588 494.481 302.653 Q 497.718 299.717 502.627 295.275 Q 507.535 290.833 510.136 288.351 Q 512.737 285.869 518.603 281.319 Q 524.468 276.768 527.686 275.081 Q 530.903 273.393 531.073 273.323 "></path>
    <path id="STROKE_68ebad81-e5c3-4049-be36-3450972afe96" opacity="1.000" fill="none" stroke="#fc6932" stroke-width="3.000" stroke-opacity="1.000" stroke-linecap="round" stroke-linejoin="round" d="M 509.524 295.898 Q 509.000 296.557 512.833 304.832 Q 513.002 304.832 513.253 304.800 Q 513.503 304.768 513.630 304.705 "></path>
    <path id="STROKE_8da55383-a955-4743-96b6-f93ab3a26646" opacity="1.000" fill="none" stroke="#fc6932" stroke-width="3.000" stroke-opacity="1.000" stroke-linecap="round" stroke-linejoin="round" d="M 512.171 300.594 Q 512.126 301.333 512.071 300.259 Q 512.016 299.185 512.269 297.760 Q 512.523 296.335 513.170 295.451 Q 513.817 294.568 514.776 293.525 Q 515.735 292.482 517.194 291.610 Q 518.653 290.738 520.562 290.668 Q 521.118 291.858 520.564 293.840 Q 520.010 295.821 518.038 299.218 Q 516.066 302.614 514.326 307.415 L 514.292 307.415 Q 514.864 306.120 516.271 303.990 Q 517.677 301.861 518.212 301.065 "></path>
    <path id="STROKE_de2eb56a-055c-4599-90d7-2c7622fdd5dc" opacity="1.000" fill="none" stroke="#fc6932" stroke-width="3.022" stroke-opacity="1.000" stroke-linecap="round" stroke-linejoin="round" d="M 533.992 267.036 Q 534.199 266.853 534.396 266.615 Q 534.592 266.376 534.765 266.276 Q 534.938 266.176 534.394 266.309 Q 533.850 266.441 539.286 264.186 Q 539.610 264.938 538.436 265.985 Q 537.262 267.033 534.552 272.330 Q 533.949 272.472 536.327 272.904 Q 538.704 273.337 540.638 274.470 Q 542.571 275.604 543.930 277.492 Q 545.288 279.380 545.436 281.321 Q 545.583 283.262 545.290 284.579 Q 544.998 285.896 543.786 286.957 Q 542.574 288.018 540.889 288.465 Q 539.203 288.912 537.716 288.338 Q 536.228 287.763 534.896 286.730 Q 533.564 285.697 532.460 282.874 Q 531.357 280.052 531.735 275.811 Q 532.504 275.754 532.464 275.811 Q 533.176 276.037 534.189 283.206 Q 535.202 290.376 534.021 299.822 Q 532.840 309.268 532.042 313.639 Q 531.245 318.009 530.734 321.365 Q 530.224 324.721 529.999 332.701 Q 529.775 340.681 529.682 340.782 "></path>
    <path id="STROKE_f8bda13e-113f-40d3-8415-965950a737af" opacity="1.000" fill="none" stroke="#fc6932" stroke-width="3.000" stroke-opacity="1.000" stroke-linecap="round" stroke-linejoin="round" d="M 565.687 269.416 Q 565.898 269.134 568.079 267.475 Q 570.260 265.817 572.299 264.239 Q 574.338 262.662 579.312 261.507 Q 578.999 261.503 579.675 261.576 Q 580.350 261.649 576.748 266.824 Q 573.145 271.999 572.780 272.394 "></path>
    <path id="STROKE_9d04f5df-67a1-48a7-9332-0e8b99fd18f3" opacity="1.000" fill="none" stroke="#fc6932" stroke-width="3.000" stroke-opacity="1.000" stroke-linecap="round" stroke-linejoin="round" d="M 560.580 283.185 Q 561.973 282.390 564.452 280.656 Q 566.931 278.923 569.552 277.089 Q 572.173 275.255 573.696 274.045 Q 575.219 272.834 576.103 272.003 Q 576.988 271.172 577.158 270.943 "></path>
    <path id="STROKE_66f2b40a-9089-4452-a093-a83cea209d3f" opacity="1.000" fill="none" stroke="#fc6932" stroke-width="3.000" stroke-opacity="1.000" stroke-linecap="round" stroke-linejoin="round" d="M 562.888 272.139 Q 563.529 272.562 561.236 277.398 Q 558.944 282.233 556.471 287.710 Q 553.997 293.186 552.701 296.181 Q 551.406 299.175 549.739 302.651 Q 548.072 306.128 547.045 308.078 Q 546.018 310.028 545.192 311.605 Q 544.366 313.181 540.558 320.192 Q 540.685 320.050 541.500 318.699 Q 542.314 317.348 542.611 316.820 "></path>
    <path id="STROKE_41ee1750-dd84-4dfe-a19d-e8f3389a3a4d" opacity="1.000" fill="none" stroke="#fc6932" stroke-width="3.000" stroke-opacity="1.000" stroke-linecap="round" stroke-linejoin="round" d="M 558.052 292.653 Q 558.919 292.984 567.788 287.079 Q 576.657 281.175 576.886 281.009 "></path>
    <path id="STROKE_c7eeba0b-e3f2-49ad-b1ea-1c8d19c5211f" opacity="1.000" fill="none" stroke="#fc6932" stroke-width="3.000" stroke-opacity="1.000" stroke-linecap="round" stroke-linejoin="round" d="M 570.048 285.501 Q 569.951 286.933 569.828 286.799 Q 570.194 286.968 564.025 295.835 Q 564.480 296.499 566.697 294.420 Q 568.914 292.341 570.557 290.791 Q 572.201 289.242 572.981 288.123 Q 573.760 287.005 575.150 286.945 Q 576.540 286.885 577.908 287.574 Q 579.275 288.262 579.781 288.511 Q 580.287 288.761 581.858 290.573 Q 581.595 290.802 581.332 290.999 "></path>
    <path id="STROKE_839175f5-63d7-4bdd-81cf-e9e4f116c135" opacity="1.000" fill="none" stroke="#fc6932" stroke-width="3.000" stroke-opacity="1.000" stroke-linecap="round" stroke-linejoin="round" d="M 563.091 302.185 Q 563.374 302.228 564.510 301.723 Q 565.646 301.219 567.963 299.740 Q 570.279 298.262 571.525 296.832 Q 572.771 295.402 572.967 295.033 "></path>
    <path id="STROKE_e18e4356-8126-4d6e-a8f5-6ee493ae9f04" opacity="1.000" fill="none" stroke="#fc6932" stroke-width="3.000" stroke-opacity="1.000" stroke-linecap="round" stroke-linejoin="round" d="M 570.387 294.448 Q 570.170 293.503 570.632 296.272 Q 571.093 299.040 570.893 301.585 Q 570.694 304.129 569.230 305.906 Q 567.766 307.683 567.333 308.141 "></path>
    <path id="STROKE_c4dc88ab-2705-4885-a662-ff6507e8c56e" opacity="1.000" fill="none" stroke="#fc6932" stroke-width="3.007" stroke-opacity="1.000" stroke-linecap="round" stroke-linejoin="round" d="M 558.188 313.371 Q 558.244 313.173 564.187 310.760 Q 570.131 308.346 575.219 306.394 Q 580.308 304.441 586.971 303.526 Q 593.635 302.611 597.145 302.467 Q 600.656 302.323 603.080 302.330 Q 605.505 302.336 607.735 302.878 Q 609.965 303.421 610.368 304.476 Q 610.771 305.532 610.771 305.761 "></path>
  </g>
</svg>